<svg width="124" height="82" viewBox="0 0 124 82" fill="none" xmlns="http://www.w3.org/2000/svg">
<path d="M77.5802 41.696C76.8842 42.3009 76.0224 42.6139 75.0333 42.6139H67.7932C66.8055 42.6139 65.9622 42.3008 65.2689 41.696C64.5741 41.0897 64.2162 40.298 64.2162 39.3367V38.7528C64.2162 37.8335 64.5741 37.0616 65.31 36.4356C66.0471 35.7886 66.8678 35.4756 67.7932 35.4756H72.4029V37.6455H67.7932C67.479 37.6455 67.2045 37.7506 66.9314 37.9597C66.6569 38.1886 66.531 38.4397 66.531 38.7527V39.3366C66.531 40.0678 66.9513 40.4229 67.7932 40.4229H75.0333C75.8951 40.4229 76.3167 40.068 76.3167 39.3366V33.7435C76.3167 33.4501 76.1907 33.2004 75.9176 32.9715C75.6432 32.7415 75.3488 32.636 75.0333 32.636H64.427V30.4648H75.0333C75.9799 30.4648 76.8006 30.7791 77.5165 31.4261C78.2536 32.0732 78.6103 32.8451 78.6103 33.7434V39.3365C78.6103 40.2978 78.2735 41.0895 77.5802 41.6957V41.696ZM92.1298 39.3369C91.5623 41.5292 90.3824 42.6142 88.5528 42.6142H85.4372C83.6076 42.6142 82.429 41.5292 81.8602 39.3369L79.5666 30.4653H82.0286L84.2387 38.9201C84.492 39.9208 85.0182 40.4232 85.7753 40.4232H88.216C88.9943 40.4232 89.5418 39.9208 89.7951 38.9201L91.9826 30.4653H94.4446L92.1298 39.3369ZM108.594 36.645C107.857 37.292 107.036 37.6037 106.111 37.6037H101.481V35.4127H106.111C106.405 35.4127 106.68 35.3087 106.953 35.0996C107.226 34.8696 107.375 34.6196 107.375 34.3276V33.7437C107.375 33.0125 106.953 32.6364 106.111 32.6364H98.8511C98.0078 32.6364 97.5876 33.0125 97.5876 33.7437V39.3158C97.5876 39.6289 97.715 39.8799 97.9879 40.089C98.2612 40.3179 98.5355 40.423 98.851 40.423H109.479V42.5929H98.851C97.9243 42.5929 97.105 42.2798 96.3678 41.654C95.632 41.0069 95.2727 40.235 95.2727 39.3157V33.7437C95.2727 32.7613 95.632 31.9894 96.3267 31.3844C97.0201 30.7795 97.862 30.4652 98.8511 30.4652H106.111C107.1 30.4652 107.942 30.7794 108.637 31.3634C109.33 31.9683 109.689 32.7613 109.689 33.7437V34.3276C109.689 35.2245 109.33 35.9965 108.594 36.6449V36.645ZM34.5713 36.5233C34.5713 37.3229 33.9177 37.9712 33.1116 37.9712C32.3055 37.9712 31.6506 37.3229 31.6506 36.5233C31.6506 35.7237 32.3055 35.0741 33.1116 35.0741C33.9177 35.0741 34.5713 35.7237 34.5713 36.5233ZM34.5713 31.9C34.5713 32.6996 33.9177 33.3479 33.1116 33.3479C32.3055 33.3479 31.6506 32.6995 31.6506 31.9C31.6506 31.099 32.3055 30.452 33.1116 30.452C33.9177 30.452 34.5713 31.0991 34.5713 31.9ZM39.4254 41.1461C39.4254 41.9458 38.7718 42.5954 37.9644 42.5954C37.1596 42.5954 36.506 41.9457 36.506 41.1461C36.506 40.3466 37.1596 39.6982 37.9644 39.6982C38.7718 39.6982 39.4254 40.3466 39.4254 41.1461Z" fill="#1D2329"/>
<path d="M39.4254 36.5233C39.4254 37.323 38.7718 37.9713 37.9644 37.9713C37.1596 37.9713 36.506 37.3229 36.506 36.5234C36.506 35.7237 37.1596 35.0741 37.9644 35.0741C38.7718 35.0741 39.4254 35.7237 39.4254 36.5233Z" fill="#3875E1"/>
<path d="M51.7174 39.3161L51.6656 39.5263C51.0796 41.5582 49.9249 42.5642 48.1656 42.5642H46.5614C44.737 42.5642 43.5651 41.4832 42.9989 39.3014L40.7133 30.4653H43.166L45.3668 38.8846C45.6187 39.884 46.1424 40.3824 46.8967 40.3824H47.8301C48.6057 40.3824 49.1506 39.8893 49.4025 38.8911C49.4025 38.8911 49.9739 37.142 51.7174 37.121C51.7174 37.121 53.4289 36.9566 54.0163 38.8201L54.04 38.8831" fill="#1D2329"/>
<path d="M54.0404 38.8827C54.2751 39.8494 54.8624 40.382 55.6167 40.382H56.5501C57.3257 40.382 57.8693 39.8836 58.1225 38.884L60.3021 30.4661H62.7534L60.4479 39.3009C59.8818 41.484 58.7085 42.565 56.8855 42.565H55.2813C53.4583 42.565 52.2757 41.4761 51.7096 39.2931L54.0404 38.8827ZM26.8294 33.7414C26.8294 33.448 26.7047 33.1969 26.4343 32.9681C26.1625 32.7366 25.892 32.6315 25.5791 32.6315H16.5783V40.4392H25.5791C26.413 40.4392 26.8293 40.0843 26.8293 39.3503L26.8294 33.7414ZM28.1008 41.7161C27.4127 42.3238 26.5576 42.6367 25.5791 42.6367H14.3073V30.455H25.5791C26.4966 30.455 27.308 30.7692 28.0372 31.4176C28.7663 32.0672 29.1203 32.8419 29.1203 33.7414V39.3503C29.1203 40.3142 28.7875 41.1086 28.1008 41.7161ZM14.4213 45.872H17.9929V46.4164H16.5041V50.1145H15.8862V46.4164H14.4213L14.4213 45.872ZM18.4722 45.872H19.0278V47.6789C19.2611 47.396 19.5514 47.2554 19.8975 47.2554C20.0857 47.2554 20.2541 47.3013 20.4039 47.3948C20.5524 47.488 20.6638 47.617 20.7367 47.7828C20.8096 47.9472 20.8454 48.1918 20.8454 48.5166V50.1145H20.2898V48.3799C20.2898 48.1749 20.2381 48.0105 20.1374 47.8854C20.0353 47.7605 19.9014 47.6975 19.7357 47.6975C19.6124 47.6975 19.497 47.7273 19.3883 47.7922C19.2796 47.8552 19.1589 47.9592 19.0277 48.1053V50.1148H18.4722L18.4722 45.872ZM22.0281 48.428H23.4454C23.4323 48.2069 23.3645 48.0361 23.2465 47.9164C23.1285 47.7967 22.9694 47.7364 22.7692 47.7364C22.5691 47.7364 22.4047 47.7967 22.2773 47.9164C22.1501 48.0361 22.0665 48.2072 22.0281 48.428H22.0281ZM23.9943 48.762H22.0122C22.0269 49.0304 22.1169 49.2433 22.284 49.4024C22.4497 49.5601 22.6658 49.6406 22.9296 49.6406C23.2969 49.6406 23.6363 49.5262 23.9465 49.2988V49.838C23.7755 49.951 23.6058 50.0315 23.4374 50.0799C23.2691 50.1284 23.0702 50.1523 22.8448 50.1523C22.5332 50.1523 22.2827 50.0893 22.0905 49.9614C21.8982 49.8324 21.7444 49.6617 21.6291 49.4446C21.5137 49.2287 21.4567 48.979 21.4567 48.6949C21.4567 48.2688 21.5774 47.9217 21.82 47.6547C22.0639 47.3878 22.3781 47.2549 22.7666 47.2549C23.1404 47.2549 23.4374 47.385 23.6602 47.6455C23.8829 47.9061 23.9943 48.2544 23.9943 48.6923V48.762ZM28.5223 46.3847C28.0423 46.3847 27.6459 46.5387 27.3317 46.8463C27.0188 47.1538 26.8624 47.542 26.8624 48.0102C26.8624 48.4652 27.0201 48.8439 27.3357 49.1478C27.6499 49.4501 28.0463 49.6014 28.5223 49.6014C28.9916 49.6014 29.388 49.4464 29.7088 49.1359C30.031 48.8269 30.1914 48.4455 30.1914 47.9917C30.1914 47.5275 30.0336 47.1435 29.7181 46.8397C29.4026 46.5359 29.0035 46.3847 28.5223 46.3847ZM30.7243 50.3773L30.1105 50.9757C29.9183 50.9683 29.7181 50.9325 29.5099 50.8743C29.3017 50.8166 29.0897 50.7364 28.8749 50.635C28.6601 50.5336 28.3737 50.3588 28.0158 50.1142C27.4974 50.021 27.0691 49.7761 26.7324 49.3791C26.3956 48.9819 26.2286 48.5243 26.2286 48.0061C26.2286 47.3723 26.4447 46.8475 26.8782 46.4319C27.3118 46.0177 27.8606 45.8099 28.5248 45.8099C29.1851 45.8099 29.7326 46.0164 30.1702 46.428C30.6077 46.8396 30.8251 47.3578 30.8251 47.9811C30.8251 48.5059 30.6607 48.9661 30.3292 49.3633C29.9991 49.7605 29.5709 50.0103 29.0472 50.1142L29.209 50.1746C29.7114 50.3666 30.0747 50.4624 30.2961 50.4624C30.4181 50.4624 30.5613 50.4363 30.7243 50.377V50.3773ZM33.3276 50.1138V49.7559C33.2082 49.8834 33.073 49.9833 32.9192 50.0545C32.7667 50.1243 32.6143 50.1597 32.4618 50.1597C32.2829 50.1597 32.1185 50.1164 31.9673 50.0281C31.8175 49.9401 31.7035 49.8204 31.6252 49.6691C31.5483 49.5192 31.5099 49.268 31.5099 48.9182V47.3164H32.0667V48.9116C32.0667 49.2061 32.1092 49.4114 32.1953 49.5271C32.2802 49.6442 32.43 49.7019 32.6448 49.7019C32.9126 49.7019 33.1406 49.573 33.3276 49.3153V47.3163H33.8831V50.1136L33.3276 50.1138ZM35.9306 49.5562V48.7238L35.5581 48.8673C35.3685 48.9422 35.2346 49.0172 35.155 49.0936C35.0769 49.17 35.0384 49.2647 35.0384 49.3791C35.0384 49.4947 35.0756 49.5894 35.1497 49.6632C35.224 49.7355 35.3195 49.7724 35.4388 49.7724C35.6151 49.7724 35.7795 49.7001 35.9306 49.5566L35.9306 49.5562ZM36.4795 48.4256V49.6144C36.4795 49.7091 36.5115 49.7564 36.5776 49.7564C36.6453 49.7564 36.75 49.708 36.8945 49.6092V49.9484C36.7686 50.0274 36.6665 50.0811 36.5909 50.1102C36.514 50.14 36.4344 50.1534 36.3509 50.1534C36.1136 50.1534 35.9731 50.0614 35.9306 49.8787C35.6933 50.0614 35.4401 50.1534 35.171 50.1534C34.9734 50.1534 34.8103 50.089 34.6791 49.96C34.5479 49.831 34.4816 49.6692 34.4816 49.4747C34.4816 49.2984 34.5452 49.1407 34.6725 49.0013C34.8011 48.8634 34.9814 48.7526 35.2174 48.6714L35.9306 48.4279V48.2781C35.9306 47.9374 35.7609 47.7678 35.4229 47.7678C35.1193 47.7678 34.8236 47.9229 34.5359 48.2334V47.6324C34.752 47.3811 35.0636 47.2549 35.4693 47.2549C35.7729 47.2549 36.0169 47.334 36.2011 47.4917C36.2621 47.5431 36.3165 47.6098 36.3655 47.6941C36.4145 47.7783 36.4464 47.8626 36.4583 47.9465C36.4715 48.0307 36.4794 48.1899 36.4794 48.4251L36.4795 48.4256ZM37.9293 47.317V47.6589C38.1785 47.3893 38.4609 47.2551 38.7778 47.2551C38.9528 47.2551 39.1171 47.2999 39.2683 47.3904C39.4194 47.481 39.5334 47.6048 39.613 47.7625C39.6912 47.9191 39.731 48.1689 39.731 48.5108V50.1139H39.1742V48.5134C39.1742 48.2253 39.1304 48.0203 39.0429 47.898C38.9541 47.7742 38.8069 47.7127 38.6014 47.7127C38.3376 47.7127 38.1135 47.8428 37.9292 48.1019V50.114H37.3578V47.3168L37.9293 47.317ZM40.0985 47.7593L41.1485 46.7349V47.3174H42.0408V47.8145H41.1485V49.1835C41.1485 49.503 41.2811 49.6635 41.5489 49.6635C41.7491 49.6635 41.9599 49.599 42.1827 49.4689V49.9818C41.9679 50.1015 41.7345 50.1608 41.4813 50.1608C41.2268 50.1608 41.0146 50.0873 40.8463 49.9386C40.7948 49.8954 40.7502 49.8449 40.7137 49.7887C40.6791 49.7321 40.65 49.6597 40.6275 49.5691C40.6038 49.4797 40.5918 49.3075 40.5918 49.055V47.8148H40.0986L40.0985 47.7593ZM44.3963 50.1138V49.7559C44.277 49.8834 44.1418 49.9833 43.988 50.0545C43.8355 50.1243 43.6831 50.1597 43.5306 50.1597C43.3516 50.1597 43.1872 50.1164 43.0361 50.0281C42.8849 49.9401 42.7709 49.8204 42.694 49.6691C42.6171 49.5192 42.5787 49.268 42.5787 48.9182V47.3164H43.1355V48.9116C43.1355 49.2061 43.1779 49.4114 43.2641 49.5271C43.349 49.6442 43.4988 49.7019 43.7135 49.7019C43.9813 49.7019 44.2094 49.573 44.3963 49.3153V47.3163H44.9518V50.1136L44.3963 50.1138ZM48.0281 48.0841V50.1133H47.4646V48.5496C47.4646 48.238 47.4221 48.021 47.3387 47.8974C47.2551 47.7751 47.1093 47.7132 46.9012 47.7132C46.7858 47.7132 46.6784 47.7393 46.5816 47.7948C46.4849 47.85 46.3748 47.9462 46.2502 48.0841V50.1133H45.6947V47.3175H46.2502V47.6858C46.5339 47.3991 46.8124 47.2544 47.0841 47.2544C47.4408 47.2544 47.7178 47.4266 47.9141 47.7686C48.211 47.4267 48.5213 47.2544 48.8448 47.2544C49.1179 47.2544 49.342 47.3543 49.5183 47.553C49.6946 47.7517 49.7821 48.0553 49.7821 48.463V50.1135H49.2266V48.4512C49.2266 48.2186 49.1789 48.0396 49.0834 47.9146C48.9879 47.7909 48.8501 47.7293 48.6711 47.7293C48.4417 47.7293 48.227 47.8479 48.0281 48.0842V48.0841ZM56.065 49.1272V49.7953C55.6155 50.0387 55.0972 50.161 54.5085 50.161C54.0312 50.161 53.6255 50.0648 53.2927 49.8743C52.96 49.6835 52.6962 49.4219 52.5026 49.0879C52.3091 48.7524 52.211 48.3909 52.211 48.0016C52.211 47.3836 52.4337 46.8641 52.8778 46.4419C53.3219 46.0211 53.8695 45.8094 54.5205 45.8094C54.9699 45.8094 55.4684 45.9264 56.0186 46.159V46.8126C55.5175 46.5275 55.0296 46.3852 54.5509 46.3852C54.0617 46.3852 53.6547 46.5377 53.3312 46.8455C53.0077 47.1531 52.846 47.5386 52.846 48.0002C52.846 48.4671 53.0051 48.8511 53.3233 49.1509C53.6428 49.4506 54.0498 49.6006 54.5456 49.6006C55.064 49.6006 55.5705 49.443 56.065 49.1272L56.065 49.1272ZM58.0195 47.8065C57.753 47.8065 57.5356 47.8933 57.3645 48.0682C57.1935 48.2419 57.1086 48.4627 57.1086 48.7323C57.1086 48.9992 57.1961 49.2176 57.3712 49.3859C57.5448 49.5555 57.7702 49.6398 58.0433 49.6398C58.3164 49.6398 58.5392 49.5544 58.7129 49.3833C58.8865 49.2122 58.9727 48.9941 58.9727 48.7258C58.9727 48.4615 58.8825 48.2418 58.7022 48.0682C58.5206 47.8934 58.2939 47.8065 58.0194 47.8065L58.0195 47.8065ZM58.0488 47.3094C58.4757 47.3094 58.831 47.4462 59.1134 47.721C59.3957 47.9958 59.5363 48.3405 59.5363 48.756C59.5363 49.1598 59.3931 49.4938 59.1067 49.7608C58.8203 50.0277 58.4597 50.1605 58.0235 50.1605C57.6033 50.1605 57.2519 50.0252 56.9696 49.7542C56.6858 49.4847 56.5453 49.1466 56.5453 48.7415C56.5453 48.3312 56.6872 47.9906 56.9735 47.7184C57.2586 47.4463 57.6178 47.3094 58.0487 47.3094L58.0488 47.3094ZM62.4628 48.0841V50.1133H61.8994V48.5496C61.8994 48.238 61.857 48.021 61.7735 47.8974C61.6899 47.7751 61.5441 47.7132 61.336 47.7132C61.2206 47.7132 61.1132 47.7393 61.0164 47.7948C60.9197 47.85 60.8096 47.9462 60.685 48.0841V50.1133H60.1295V47.3175H60.685V47.6858C60.9687 47.3991 61.2471 47.2544 61.5189 47.2544C61.8756 47.2544 62.1526 47.4266 62.3489 47.7686C62.6458 47.4267 62.9561 47.2544 63.2796 47.2544C63.5527 47.2544 63.7768 47.3543 63.9531 47.553C64.1294 47.7517 64.2169 48.0553 64.2169 48.463V50.1135H63.6614V48.4512C63.6614 48.2186 63.6137 48.0396 63.5182 47.9146C63.4227 47.7909 63.2849 47.7293 63.1059 47.7293C62.8765 47.7293 62.6618 47.8479 62.4629 48.0842L62.4628 48.0841ZM65.9444 47.8376H65.5506V49.5524C65.7216 49.6419 65.9006 49.6866 66.0876 49.6866C66.3488 49.6866 66.5609 49.5971 66.728 49.4171C66.8937 49.237 66.9758 49.0041 66.9758 48.7214C66.9758 48.5387 66.9374 48.3781 66.8578 48.2388C66.7797 48.0993 66.6735 47.9968 66.5383 47.9338C66.4031 47.8693 66.2042 47.8376 65.9444 47.8376V47.8376ZM64.9792 51.5436V47.3169H65.955C66.4548 47.3169 66.8433 47.4406 67.1217 47.6878C67.4001 47.9349 67.5406 48.2796 67.5406 48.7241C67.5406 49.1436 67.4094 49.4868 67.1469 49.7564C66.8857 50.026 66.5516 50.1602 66.1459 50.1602C65.9669 50.1602 65.7681 50.1207 65.5506 50.042V51.5439L64.9792 51.5436ZM69.9382 50.1138V49.7559C69.8189 49.8834 69.6837 49.9833 69.5298 50.0545C69.3774 50.1243 69.2249 50.1597 69.0725 50.1597C68.8935 50.1597 68.7291 50.1164 68.5779 50.0281C68.4281 49.9401 68.3141 49.8204 68.2372 49.6691C68.1603 49.5192 68.1206 49.268 68.1206 48.9182V47.3164H68.6774V48.9116C68.6774 49.2061 68.7199 49.4114 68.806 49.5271C68.8909 49.6442 69.0406 49.7019 69.2555 49.7019C69.5232 49.7019 69.7513 49.573 69.9382 49.3153V47.3163H70.4937V50.1136L69.9382 50.1138ZM70.8913 47.7593L71.9413 46.7349V47.3174H72.8336V47.8145H71.9413V49.1835C71.9413 49.503 72.0739 49.6635 72.3417 49.6635C72.5419 49.6635 72.7527 49.599 72.9755 49.4689V49.9818C72.7607 50.1015 72.5273 50.1608 72.2754 50.1608C72.0195 50.1608 71.8074 50.0873 71.6391 49.9386C71.5876 49.8954 71.543 49.8449 71.5065 49.7887C71.4719 49.7321 71.4429 49.6597 71.4203 49.5691C71.3966 49.4797 71.3846 49.3075 71.3846 49.055V47.8148H70.8914L70.8913 47.7593ZM73.4199 47.3174H73.9754V50.1146H73.4199V47.3174ZM73.6983 46.1443C73.7897 46.1443 73.868 46.1742 73.9329 46.2375C73.9992 46.3005 74.031 46.377 74.031 46.469C74.031 46.557 73.9991 46.6346 73.9329 46.699C73.8679 46.7635 73.7897 46.7963 73.6983 46.7963C73.6121 46.7963 73.5365 46.7628 73.4715 46.6976C73.4052 46.6319 73.3734 46.5555 73.3734 46.4687C73.3734 46.3833 73.4054 46.3084 73.4715 46.2424C73.5365 46.1768 73.6121 46.144 73.6983 46.144V46.1443ZM75.3298 47.317V47.6589C75.579 47.3893 75.8614 47.2551 76.1783 47.2551C76.3533 47.2551 76.5177 47.2999 76.6688 47.3904C76.82 47.481 76.934 47.6048 77.0135 47.7625C77.0917 47.9191 77.1315 48.1689 77.1315 48.5108V50.1139H76.5747V48.5134C76.5747 48.2253 76.531 48.0203 76.4434 47.898C76.3559 47.7742 76.2074 47.7127 76.0019 47.7127C75.7381 47.7127 75.5141 47.8428 75.3298 48.1019V50.114H74.7584V47.3168L75.3298 47.317ZM78.7782 47.7986C78.627 47.7986 78.4984 47.85 78.3911 47.951C78.285 48.0524 78.2319 48.1747 78.2319 48.3167C78.2319 48.4614 78.2837 48.5799 78.3884 48.6746C78.4931 48.7693 78.6244 48.8166 78.7848 48.8166C78.9413 48.8166 79.0725 48.7682 79.1786 48.672C79.2833 48.5747 79.3363 48.455 79.3363 48.3104C79.3363 48.1643 79.2833 48.042 79.1773 47.9447C79.0712 47.8474 78.9373 47.7986 78.7782 47.7986H78.7782ZM78.6443 50.2486C78.456 50.2486 78.3036 50.2881 78.1842 50.3668C78.0649 50.4458 78.0053 50.5468 78.0053 50.6706C78.0053 50.9572 78.2665 51.1006 78.7875 51.1006C79.0341 51.1006 79.225 51.0633 79.3602 50.9928C79.4955 50.9205 79.5631 50.8191 79.5631 50.6875C79.5631 50.5586 79.4782 50.4534 79.3071 50.3707C79.1362 50.289 78.9148 50.2484 78.6443 50.2484V50.2486ZM77.7308 48.285C77.7308 47.9864 77.8409 47.751 78.0596 47.5774C78.2797 47.4037 78.5793 47.3169 78.9585 47.3169H80.1199V47.7522H79.5511C79.6612 47.8625 79.7381 47.9639 79.7818 48.056C79.8243 48.1466 79.8454 48.2521 79.8454 48.3691C79.8454 48.5153 79.803 48.6584 79.7195 48.7991C79.6359 48.9397 79.5286 49.0478 79.396 49.1227C79.2647 49.1976 79.0486 49.258 78.7477 49.3028C78.5342 49.3326 78.4282 49.4053 78.4282 49.5186C78.4282 49.5831 78.4666 49.6368 78.5462 49.6778C78.6244 49.7199 78.7662 49.7631 78.9731 49.8068C79.3178 49.8832 79.5405 49.941 79.6399 49.9842C79.7394 50.0263 79.8282 50.0867 79.909 50.1658C80.0443 50.3 80.112 50.4681 80.112 50.6708C80.112 50.9366 79.9925 51.1481 79.7553 51.306C79.518 51.4637 79.1999 51.5427 78.8021 51.5427C78.4004 51.5427 78.0795 51.4637 77.8396 51.3045C77.6009 51.1453 77.4803 50.9325 77.4803 50.664C77.4803 50.2852 77.715 50.0419 78.1843 49.9315C77.9974 49.8118 77.9032 49.6933 77.9032 49.5766C77.9032 49.4871 77.943 49.4055 78.0252 49.3332C78.1048 49.2597 78.2148 49.2068 78.3513 49.1714C77.9377 48.9887 77.7309 48.694 77.7309 48.285L77.7308 48.285ZM86.0598 49.1272V49.7953C85.6103 50.0387 85.0919 50.161 84.5033 50.161C84.026 50.161 83.6203 50.0648 83.2875 49.8743C82.9546 49.6835 82.6909 49.4219 82.4974 49.0879C82.3024 48.7524 82.2069 48.3909 82.2069 48.0016C82.2069 47.3836 82.4283 46.8641 82.8725 46.4419C83.3166 46.0211 83.8641 45.8094 84.5151 45.8094C84.9645 45.8094 85.463 45.9264 86.0119 46.159V46.8126C85.5121 46.5275 85.0242 46.3852 84.5456 46.3852C84.0564 46.3852 83.6493 46.5377 83.3258 46.8455C83.0023 47.1531 82.8407 47.5386 82.8407 48.0002C82.8407 48.4671 82.9996 48.8511 83.318 49.1509C83.6374 49.4506 84.0444 49.6006 84.5403 49.6006C85.0586 49.6006 85.5651 49.443 86.0596 49.1272L86.0598 49.1272ZM88.014 47.8065C87.7476 47.8065 87.5301 47.8933 87.3591 48.0682C87.1881 48.2419 87.1032 48.4627 87.1032 48.7323C87.1032 48.9992 87.1907 49.2176 87.3658 49.3859C87.5395 49.5555 87.765 49.6398 88.038 49.6398C88.3112 49.6398 88.5339 49.5544 88.7075 49.3833C88.8812 49.2122 88.9672 48.9941 88.9672 48.7258C88.9672 48.4615 88.877 48.2418 88.6966 48.0682C88.5151 47.8934 88.2883 47.8065 88.0139 47.8065L88.014 47.8065ZM88.0439 47.3094C88.4709 47.3094 88.8261 47.4462 89.1085 47.721C89.3908 47.9958 89.5315 48.3405 89.5315 48.756C89.5315 49.1598 89.3883 49.4938 89.1019 49.7608C88.8156 50.0277 88.4549 50.1605 88.0188 50.1605C87.5985 50.1605 87.2471 50.0252 86.9647 49.7542C86.681 49.4847 86.5405 49.1466 86.5405 48.7415C86.5405 48.3312 86.6825 47.9906 86.9687 47.7184C87.2536 47.4463 87.6131 47.3094 88.0439 47.3094V47.3094ZM92.4575 48.0841V50.1133H91.8941V48.5496C91.8941 48.238 91.8516 48.021 91.7682 47.8974C91.6847 47.7751 91.5389 47.7132 91.3307 47.7132C91.2153 47.7132 91.1078 47.7393 91.0112 47.7948C90.9143 47.85 90.8045 47.9462 90.6797 48.0841V50.1133H90.1229V47.3175H90.6797V47.6858C90.9635 47.3991 91.2419 47.2544 91.5137 47.2544C91.8703 47.2544 92.1474 47.4266 92.3436 47.7686C92.6405 47.4267 92.9508 47.2544 93.2756 47.2544C93.5473 47.2544 93.7715 47.3543 93.9478 47.553C94.124 47.7517 94.2116 48.0553 94.2116 48.463V50.1135H93.6562V48.4512C93.6562 48.2186 93.6084 48.0396 93.513 47.9146C93.4175 47.7909 93.2796 47.7293 93.1006 47.7293C92.8714 47.7293 92.6565 47.8479 92.4576 48.0842L92.4575 48.0841ZM95.939 47.8376H95.5453V49.5524C95.7163 49.6419 95.8952 49.6866 96.0822 49.6866C96.3434 49.6866 96.5555 49.5971 96.7226 49.4171C96.8883 49.237 96.9706 49.0041 96.9706 48.7214C96.9706 48.5387 96.9323 48.3781 96.8526 48.2388C96.7745 48.0993 96.6685 47.9968 96.5332 47.9338C96.3979 47.8693 96.1991 47.8376 95.9392 47.8376L95.939 47.8376ZM94.9741 51.5436V47.3169H95.9498C96.4497 47.3169 96.8381 47.4406 97.1179 47.6878C97.3948 47.9349 97.5341 48.2796 97.5341 48.7241C97.5341 49.1436 97.4041 49.4868 97.1417 49.7564C96.8805 50.026 96.5464 50.1602 96.1407 50.1602C95.9618 50.1602 95.7629 50.1207 95.5455 50.042V51.5439L94.9741 51.5436ZM99.396 49.5562V48.7238L99.0236 48.8673C98.8327 48.9422 98.6989 49.0172 98.6206 49.0936C98.5424 49.17 98.5026 49.2647 98.5026 49.3791C98.5026 49.4947 98.5402 49.5894 98.6153 49.6632C98.6897 49.7355 98.7852 49.7724 98.9043 49.7724C99.0806 49.7724 99.2452 49.7001 99.3962 49.5566L99.396 49.5562ZM99.9438 48.4256V49.6144C99.9438 49.7091 99.9776 49.7564 100.043 49.7564C100.111 49.7564 100.216 49.708 100.36 49.6092V49.9484C100.233 50.0274 100.132 50.0811 100.057 50.1102C99.9795 50.14 99.9002 50.1534 99.8164 50.1534C99.5792 50.1534 99.4385 50.0614 99.3961 49.8787C99.1574 50.0614 98.9055 50.1534 98.6364 50.1534C98.4387 50.1534 98.2756 50.089 98.1445 49.96C98.0119 49.831 97.9469 49.6692 97.9469 49.4747C97.9469 49.2984 98.0104 49.1407 98.1378 49.0013C98.2663 48.8634 98.4467 48.7526 98.6827 48.6714L99.396 48.4279V48.2781C99.396 47.9374 99.2261 47.7678 98.8882 47.7678C98.5845 47.7678 98.2889 47.9229 98.0013 48.2334V47.6324C98.2174 47.3811 98.5289 47.2549 98.9346 47.2549C99.2382 47.2549 99.4821 47.334 99.6664 47.4917C99.7273 47.5431 99.7818 47.6098 99.8307 47.6941C99.8795 47.7783 99.9103 47.8626 99.9235 47.9465C99.9385 48.0307 99.9423 48.1899 99.9423 48.4251L99.9438 48.4256ZM101.394 47.317V47.6589C101.644 47.3893 101.926 47.2551 102.243 47.2551C102.418 47.2551 102.582 47.2999 102.733 47.3904C102.885 47.481 102.998 47.6048 103.078 47.7625C103.156 47.9191 103.196 48.1689 103.196 48.5108V50.1139H102.639V48.5134C102.639 48.2253 102.596 48.0203 102.508 47.898C102.421 47.7742 102.272 47.7127 102.067 47.7127C101.803 47.7127 101.579 47.8428 101.394 48.1019V50.114H100.823V47.3168L101.394 47.317ZM105.574 47.317H106.196L104.21 51.5437H103.588L104.538 49.5237L103.454 47.317H104.089L104.843 48.8912L105.574 47.317ZM108.369 48.9796H108.126V47.3948H108.517L108.92 48.6613L109.31 47.3948H109.693V48.9796H109.449V47.65L109.041 48.9796H108.801L108.369 47.6276L108.369 48.9796ZM107.422 48.9796H107.156V47.6197H106.637V47.395H107.946V47.6197H107.422L107.422 48.9796Z" fill="#1D2329"/>
</svg>
