<svg width="138" height="36" viewBox="0 0 138 36" fill="none" xmlns="http://www.w3.org/2000/svg">
<g clip-path="url(#clip0_101_763)">
<path d="M62.5974 18.872C62.5974 22.8973 59.4388 25.8635 55.5625 25.8635C51.6862 25.8635 48.5276 22.8973 48.5276 18.872C48.5276 14.8183 51.6862 11.8805 55.5625 11.8805C59.4388 11.8805 62.5974 14.8183 62.5974 18.872ZM59.5179 18.872C59.5179 16.3566 57.6872 14.6355 55.5625 14.6355C53.4378 14.6355 51.6071 16.3566 51.6071 18.872C51.6071 21.3622 53.4378 23.1085 55.5625 23.1085C57.6872 23.1085 59.5179 21.3591 59.5179 18.872Z" fill="#EA4335"/>
<path d="M77.7739 18.872C77.7739 22.8973 74.6153 25.8635 70.739 25.8635C66.8626 25.8635 63.704 22.8973 63.704 18.872C63.704 14.8215 66.8626 11.8805 70.739 11.8805C74.6153 11.8805 77.7739 14.8183 77.7739 18.872ZM74.6943 18.872C74.6943 16.3566 72.8637 14.6355 70.739 14.6355C68.6143 14.6355 66.7836 16.3566 66.7836 18.872C66.7836 21.3622 68.6143 23.1085 70.739 23.1085C72.8637 23.1085 74.6943 21.3591 74.6943 18.872Z" fill="#FBBC05"/>
<path d="M92.318 12.3029V24.8548C92.318 30.0181 89.2637 32.1269 85.653 32.1269C82.2541 32.1269 80.2084 29.8605 79.437 28.007L82.1182 26.8943C82.5956 28.0322 83.7654 29.3751 85.6498 29.3751C87.9611 29.3751 89.3934 27.9534 89.3934 25.2772V24.2717H89.2859C88.5966 25.1196 87.2687 25.8604 85.5929 25.8604C82.0865 25.8604 78.8742 22.8154 78.8742 18.8972C78.8742 14.9507 82.0865 11.8805 85.5929 11.8805C87.2655 11.8805 88.5935 12.6213 89.2859 13.444H89.3934V12.306H92.318V12.3029ZM89.6115 18.8972C89.6115 16.4354 87.9643 14.6355 85.868 14.6355C83.7433 14.6355 81.9632 16.4354 81.9632 18.8972C81.9632 21.3339 83.7433 23.1085 85.868 23.1085C87.9643 23.1085 89.6115 21.3339 89.6115 18.8972Z" fill="#4285F4"/>
<path d="M97.1397 4.94568V25.4348H94.136V4.94568H97.1397Z" fill="#34A853"/>
<path d="M108.845 21.1731L111.235 22.7618C110.463 23.8997 108.604 25.8604 105.392 25.8604C101.408 25.8604 98.4329 22.7901 98.4329 18.8688C98.4329 14.7111 101.433 11.8773 105.047 11.8773C108.686 11.8773 110.467 14.7647 111.048 16.325L111.368 17.1194L101.993 20.9903C102.711 22.393 103.827 23.1085 105.392 23.1085C106.96 23.1085 108.048 22.3394 108.845 21.1731ZM101.487 18.6576L107.754 16.0634C107.409 15.1903 106.372 14.5819 105.152 14.5819C103.587 14.5819 101.408 15.9594 101.487 18.6576Z" fill="#EA4335"/>
<path d="M37.1579 17.0532V14.087H47.1838C47.2818 14.604 47.3324 15.2155 47.3324 15.8774C47.3324 18.1029 46.7222 20.8547 44.7556 22.8154C42.8427 24.8012 40.3987 25.8604 37.161 25.8604C31.16 25.8604 26.1138 20.9871 26.1138 15.0043C26.1138 9.02145 31.16 4.14819 37.161 4.14819C40.4809 4.14819 42.8459 5.44689 44.6228 7.13961L42.5234 9.23265C41.2492 8.04113 39.5229 7.11439 37.1579 7.11439C32.7757 7.11439 29.3483 10.6354 29.3483 15.0043C29.3483 19.3732 32.7757 22.8942 37.1579 22.8942C40.0003 22.8942 41.6191 21.7562 42.6562 20.7223C43.4972 19.8838 44.0505 18.686 44.2687 17.05L37.1579 17.0532Z" fill="#4285F4"/>
</g>
<defs>
<clipPath id="clip0_101_763">
<rect width="86" height="29" fill="white" transform="translate(26 4)"/>
</clipPath>
</defs>
</svg>
