<svg width="76" height="50" viewBox="0 0 76 50" fill="none" xmlns="http://www.w3.org/2000/svg">
<g clip-path="url(#clip0_101_810)">
<path d="M22.4956 21.2463V33.367H18.6149V18.1319L26.6267 18.1398C30.0296 18.1398 31.1888 20.5257 31.1888 22.6928V33.367H27.3151V22.7128C27.3151 21.805 26.8425 21.2464 25.7024 21.2464H22.4956V21.2463ZM48.884 21.0643C47.5575 21.0643 46.531 21.7423 46.1022 22.6626C45.8481 23.2152 45.7608 23.6387 45.7309 24.3153H51.7012C51.6246 22.6626 50.8708 21.0643 48.884 21.0643ZM45.7309 26.9412C45.7309 28.9147 46.9649 30.3673 49.1679 30.3673C50.882 30.3673 51.7339 29.895 52.725 28.9147L55.1219 31.1901C53.5872 32.6965 51.9768 33.6113 49.1394 33.6113C45.4245 33.6113 41.8693 31.5973 41.8693 25.7279C41.8693 20.7128 44.9733 17.8737 49.0521 17.8737C53.1864 17.8737 55.5749 21.1976 55.5749 25.5514V26.9412H45.7309ZM38.5934 33.348C35.432 33.348 34.0906 31.1599 34.0906 28.9988V13.981H37.9653V18.1319H40.8862V21.2463H37.9653V28.7573C37.9653 29.6424 38.3856 30.1337 39.3099 30.1337H40.8862V33.348H38.5934ZM15.162 16.0265H11.2547V12.3363H15.162V16.0265ZM15.1718 33.5272C12.2458 33.2477 11.2505 31.4831 11.2505 29.4469L11.2547 18.1319H15.1719V33.5272H15.1718ZM61.7419 33.2017C58.8219 32.9217 57.8313 31.1599 57.8313 29.1265V11.8111H61.7419V33.2017ZM75.4129 14.3135C71.8689 -2.86541 38.3286 -3.95293 16.7098 9.13219V10.5768C38.3067 -0.458177 68.9363 -0.393169 71.7269 15.4293C72.6606 20.6613 69.6953 26.1161 64.3994 29.2514V33.3535C70.7737 31.035 77.311 23.5166 75.4129 14.3135ZM36.1148 44.3699C21.1944 45.7412 5.64634 43.588 3.47082 31.9962C2.40595 26.2818 5.02423 20.2243 8.49768 16.4616V14.4496C2.24481 19.9011 -1.14877 26.8028 0.804896 34.9579C3.29848 45.4152 16.6426 51.3414 37.0102 49.3734C45.0686 48.5914 55.616 46.0152 62.9487 42.0138V36.3291C56.2951 40.2683 45.2849 43.5257 36.1148 44.3699Z" fill="#0071C5"/>
<path d="M66.2623 12.9609C66.2623 12.7724 66.1516 12.7125 65.8985 12.7125H65.6542V13.246C65.6897 13.246 65.8672 13.2525 65.8985 13.2525C66.1516 13.2525 66.2623 13.1685 66.2623 12.992V12.9609V12.9609ZM66.6434 14.2839H66.3539C66.3277 14.2839 66.3048 14.2676 66.2936 14.2458L65.8985 13.5799C65.8915 13.5665 65.8574 13.5502 65.8438 13.5502H65.6664V14.2105C65.6664 14.2458 65.6421 14.2839 65.5954 14.2839H65.3334C65.3007 14.2839 65.268 14.2458 65.268 14.2105V12.5402C65.268 12.4436 65.3058 12.4032 65.388 12.3907C65.4805 12.3786 65.7318 12.3703 65.8672 12.3703C66.3483 12.3703 66.6392 12.5114 66.6392 12.9609V12.992C66.6392 13.2702 66.5 13.4169 66.2843 13.4889L66.6939 14.1775C66.6965 14.1915 66.706 14.2105 66.706 14.2267C66.706 14.2537 66.6896 14.2839 66.6434 14.2839L66.6434 14.2839ZM65.9559 12.0689C65.2432 12.0689 64.6669 12.654 64.6669 13.3584C64.6669 14.0638 65.2432 14.6396 65.9559 14.6396C66.6649 14.6396 67.2468 14.0638 67.2468 13.3584C67.2468 12.654 66.6649 12.0689 65.9559 12.0689ZM65.9559 14.9052C65.09 14.9052 64.3993 14.2105 64.3993 13.3584C64.3993 12.5077 65.09 11.8112 65.9559 11.8112C66.8125 11.8112 67.5163 12.5077 67.5163 13.3584C67.5163 14.2105 66.8125 14.9052 65.9559 14.9052Z" fill="#0071C5"/>
</g>
<defs>
<clipPath id="clip0_101_810">
<rect width="76" height="50" fill="white"/>
</clipPath>
</defs>
</svg>
