<svg width="86" height="26" viewBox="0 0 86 26" fill="none" xmlns="http://www.w3.org/2000/svg">
<g clip-path="url(#clip0_101_774)">
<path fill-rule="evenodd" clip-rule="evenodd" d="M53.3527 20.3328C48.3551 24.0283 41.1114 26 34.8747 26C26.1298 26 18.2572 22.7551 12.3012 17.3583C11.8333 16.934 12.2525 16.3556 12.8141 16.6861C19.2417 20.4379 27.1892 22.695 35.3988 22.695C40.9355 22.695 47.0262 21.5458 52.6265 19.161C53.4725 18.8005 54.1801 19.7169 53.3527 20.3328Z" fill="#FF9900"/>
<path fill-rule="evenodd" clip-rule="evenodd" d="M55.4304 17.948C54.794 17.1293 51.2077 17.5612 49.598 17.7527C49.1076 17.8128 49.0327 17.3847 49.4744 17.0767C52.3307 15.06 57.0176 15.6421 57.5642 16.3181C58.1107 16.9979 57.4219 21.7111 54.7378 23.9607C54.326 24.3062 53.933 24.1222 54.1164 23.664C54.7191 22.1543 56.0705 18.7705 55.4304 17.948Z" fill="#FF9900"/>
<path fill-rule="evenodd" clip-rule="evenodd" d="M49.7103 2.83921V0.878795C49.7103 0.582103 49.9349 0.383057 50.2044 0.383057H58.953C59.2338 0.383057 59.4584 0.585859 59.4584 0.878795V2.55755C59.4547 2.83921 59.2188 3.20726 58.7995 3.78938L54.2661 10.2828C55.9507 10.2415 57.7289 10.4931 59.2562 11.3569C59.6006 11.5522 59.6942 11.8376 59.7204 12.1193V14.2112C59.7204 14.4966 59.406 14.8308 59.0766 14.6581C56.385 13.2422 52.8099 13.0882 49.8338 14.6731C49.5306 14.8383 49.2124 14.5078 49.2124 14.2224V12.2357C49.2124 11.9165 49.2161 11.3719 49.5343 10.8875L54.7865 3.3312H50.2156C49.9349 3.3312 49.7103 3.13215 49.7103 2.83921Z" fill="black"/>
<path fill-rule="evenodd" clip-rule="evenodd" d="M17.7967 15.0712H15.1351C14.8805 15.0524 14.6784 14.8609 14.6596 14.6168V0.912635C14.6596 0.638477 14.888 0.420651 15.1725 0.420651H17.6545C17.9128 0.43191 18.1187 0.630964 18.1374 0.878832V2.67025H18.186C18.8337 0.938922 20.0503 0.13147 21.69 0.13147C23.3559 0.13147 24.3966 0.938922 25.1453 2.67025C25.7891 0.938922 27.2529 0.13147 28.8214 0.13147C29.937 0.13147 31.1574 0.593407 31.9023 1.62995C32.7446 2.78292 32.5724 4.45791 32.5724 5.92635L32.5687 14.5755C32.5687 14.8496 32.3403 15.0712 32.0558 15.0712H29.3979C29.1321 15.0524 28.9187 14.8384 28.9187 14.5755V7.31216C28.9187 6.7338 28.9711 5.29165 28.8439 4.74334C28.6455 3.82322 28.0502 3.56408 27.2791 3.56408C26.6352 3.56408 25.9613 3.99597 25.6881 4.687C25.4148 5.37803 25.441 6.53475 25.441 7.31216V14.5755C25.441 14.8496 25.2126 15.0712 24.9281 15.0712H22.2702C22.0007 15.0524 21.7911 14.8384 21.7911 14.5755L21.7873 7.31216C21.7873 5.78364 22.0381 3.53404 20.1477 3.53404C18.2347 3.53404 18.3096 5.7273 18.3096 7.31216V14.5755C18.3096 14.8496 18.0812 15.0712 17.7967 15.0712" fill="black"/>
<path fill-rule="evenodd" clip-rule="evenodd" d="M66.9904 0.13147C70.9398 0.13147 73.0773 3.53404 73.0773 7.86048C73.0773 12.0405 70.7152 15.3566 66.9904 15.3566C63.1121 15.3566 61.0007 11.9541 61.0007 7.71401C61.0007 3.44766 63.1383 0.13147 66.9904 0.13147ZM67.0128 2.92939C65.0512 2.92939 64.9277 5.61088 64.9277 7.28212C64.9277 8.95711 64.9015 12.5324 66.9904 12.5324C69.0531 12.5324 69.1504 9.64814 69.1504 7.89052C69.1504 6.7338 69.1017 5.35174 68.7536 4.25511C68.4541 3.30119 67.8589 2.92939 67.0128 2.92939Z" fill="black"/>
<path fill-rule="evenodd" clip-rule="evenodd" d="M78.1985 15.0712H75.5481C75.2823 15.0524 75.0689 14.8384 75.0689 14.5755L75.0652 0.867566C75.0876 0.615941 75.3085 0.420651 75.578 0.420651H78.045C78.2771 0.43191 78.468 0.589653 78.5205 0.803722V2.89934H78.5691C79.3141 1.0253 80.3585 0.13147 82.1966 0.13147C83.3908 0.13147 84.555 0.563364 85.3037 1.74637C86 2.84301 86 4.687 86 6.01272V14.6393C85.9701 14.8797 85.7492 15.0712 85.4872 15.0712H82.818C82.5747 15.0524 82.3725 14.8722 82.3463 14.6393V7.19574C82.3463 5.69726 82.5185 3.50399 80.6805 3.50399C80.0328 3.50399 79.4376 3.93964 79.1419 4.60062C78.7675 5.43812 78.7189 6.27186 78.7189 7.19574V14.5755C78.7151 14.8496 78.483 15.0712 78.1985 15.0712" fill="black"/>
<path fill-rule="evenodd" clip-rule="evenodd" d="M42.7361 8.5252C42.7361 9.5655 42.7623 10.433 42.2382 11.3569C41.8152 12.108 41.1413 12.57 40.3964 12.57C39.3744 12.57 38.7754 11.7888 38.7754 10.6358C38.7754 8.35996 40.8082 7.94684 42.7361 7.94684V8.5252ZM45.4202 15.0336C45.2443 15.1914 44.9897 15.2027 44.7913 15.0975C43.9078 14.3614 43.7468 14.0196 43.2639 13.3173C41.804 14.8121 40.767 15.259 38.8765 15.259C36.6341 15.259 34.8934 13.8732 34.8934 11.0978C34.8934 8.93081 36.0614 7.45486 37.731 6.73378C39.176 6.09533 41.1938 5.98267 42.7361 5.80615V5.46064C42.7361 4.82594 42.7848 4.07482 42.4104 3.52651C42.0885 3.03452 41.467 2.83172 40.9167 2.83172C39.9022 2.83172 39.0001 3.35375 38.7792 4.43536C38.7343 4.67572 38.5583 4.91232 38.315 4.92359L35.7357 4.64567C35.5186 4.59685 35.2752 4.42034 35.3389 4.08609C35.9304 0.946413 38.7605 0 41.2911 0C42.5863 0 44.2784 0.345515 45.3004 1.32948C46.5957 2.54254 46.4721 4.1612 46.4721 5.92258V10.0838C46.4721 11.3344 46.9887 11.8827 47.4754 12.5587C47.6439 12.7991 47.6813 13.0882 47.4642 13.2685C46.9213 13.7229 45.9555 14.568 45.4239 15.0412L45.4202 15.0336" fill="black"/>
<path fill-rule="evenodd" clip-rule="evenodd" d="M7.84268 8.52545C7.84268 9.56575 7.86889 10.4333 7.3448 11.3572C6.92177 12.1083 6.25168 12.5702 5.50298 12.5702C4.481 12.5702 3.88578 11.7891 3.88578 10.6361C3.88578 8.3602 5.91851 7.94709 7.84268 7.94709V8.52545ZM10.5268 15.0339C10.3508 15.1916 10.0963 15.2029 9.89788 15.0977C9.01441 14.3616 8.85718 14.0199 8.37052 13.3176C6.91054 14.8123 5.87733 15.2592 3.98311 15.2592C1.74448 15.2592 0 13.8734 0 11.098C0 8.93105 1.17172 7.4551 2.83759 6.73403C4.28259 6.09557 6.30035 5.98291 7.84268 5.8064V5.46088C7.84268 4.82618 7.89135 4.07506 7.52074 3.52675C7.19505 3.03477 6.57363 2.83196 6.02707 2.83196C5.01258 2.83196 4.10665 3.35399 3.88578 4.4356C3.84085 4.67596 3.66491 4.91256 3.42532 4.92383L0.842293 4.64592C0.625168 4.5971 0.385582 4.42058 0.445479 4.08633C1.0407 0.946657 3.86706 0.000244141 6.39768 0.000244141C7.69294 0.000244141 9.38501 0.34576 10.407 1.32972C11.7023 2.54278 11.5787 4.16144 11.5787 5.92282V10.084C11.5787 11.3346 12.0953 11.8829 12.582 12.559C12.7542 12.7993 12.7916 13.0885 12.5745 13.2688C12.0317 13.7232 11.0659 14.5682 10.5343 15.0414L10.5268 15.0339" fill="black"/>
</g>
<defs>
<clipPath id="clip0_101_774">
<rect width="86" height="26" fill="white"/>
</clipPath>
</defs>
</svg>
