<svg width="130" height="16" viewBox="0 0 130 16" fill="none" xmlns="http://www.w3.org/2000/svg">
<g clip-path="url(#clip0_101_754)">
<path d="M1.91803 5.0545H0.781422C0.390712 5.0545 0.177597 4.90905 0.177597 4.50905C0.177597 4.14541 0.390712 3.96359 0.781422 3.96359H1.91803V2.94541C1.91803 1.1636 2.80601 0.2545 4.54645 0.2545C5.22131 0.2545 5.82514 0.399956 6.32241 0.654501C6.92623 1.0545 7.21038 1.59996 7.21038 2.2545C7.21038 2.72723 7.06831 2.90905 6.71312 2.90905C6.46448 2.90905 6.25137 2.76359 6.18033 2.50904C6.03825 2.03632 5.89618 1.74541 5.78962 1.63632C5.5765 1.38177 5.15027 1.23632 4.54645 1.23632C3.44536 1.23632 2.98361 1.78177 2.98361 2.83632V3.8545H5.04372C5.50547 3.8545 5.71858 3.99996 5.71858 4.39996C5.71858 4.76359 5.46995 4.94541 5.04372 4.94541H2.98361V11.6727C2.98361 12.0727 2.84153 12.2909 2.48634 12.2909C2.13115 12.2909 1.98907 12.0727 1.98907 11.6727L1.91803 5.0545ZM11.1175 11.2V5.09086H9.59017C9.16394 5.09086 8.95082 4.94541 8.95082 4.54541C8.95082 4.18177 9.16394 3.99996 9.59017 3.99996H11.6148C11.9699 3.99996 12.1475 4.29086 12.1475 4.90905C12.7869 4.21814 13.4262 3.8545 14.1721 3.8545C14.776 3.8545 15.2022 3.99996 15.5574 4.39996C15.9126 4.79996 16.0546 5.27268 16.0546 5.8545C16.0546 6.2545 15.9126 6.47268 15.5574 6.47268C15.3443 6.47268 15.2022 6.32723 15.0956 6.07268C14.9536 5.56359 14.847 5.30905 14.847 5.27268C14.7049 5.01814 14.3852 4.87268 14.0656 4.87268C13.6749 4.87268 13.2842 5.01814 12.9645 5.34541C12.7514 5.49086 12.4672 5.81814 12.112 6.29086V11.2H14.0301C14.4918 11.2 14.6694 11.3454 14.6694 11.709C14.6694 12.0727 14.4563 12.2545 14.0301 12.2545H9.59017C9.12842 12.2545 8.95082 12.109 8.95082 11.709C8.95082 11.3454 9.16394 11.1636 9.59017 11.1636H11.153L11.1175 11.2ZM18.8251 8.29086V9.4545C18.8251 10.7272 19.6776 11.309 21.3825 11.309C22.0219 11.309 22.5191 11.2727 22.9098 11.0909C23.123 11.0545 23.4426 10.8363 23.9399 10.4727C24.224 10.1818 24.4727 10.0363 24.5792 10.0363C24.8634 10.0363 25.041 10.1818 25.041 10.4727C25.041 10.7636 24.8279 11.1272 24.4016 11.4909C23.7268 12.0363 22.6612 12.3636 21.347 12.3636C18.9672 12.3636 17.7951 11.4181 17.7951 9.41814V6.54541C17.7951 5.89086 18.0437 5.27268 18.541 4.83632C19.1803 4.18177 20.1749 3.89086 21.4536 3.89086C23.7623 3.89086 24.8989 5.09087 24.8989 7.49087C24.8989 8.10905 24.6503 8.36359 24.2596 8.36359L18.8251 8.29086ZM18.8251 7.23632H23.9044C23.9044 5.67268 23.0519 4.87268 21.347 4.87268C20.7077 4.87268 20.1749 5.01814 19.6066 5.34541C19.1093 5.74541 18.8251 6.14541 18.8251 6.6545V7.23632ZM27.7404 8.29086V9.4545C27.7404 10.7272 28.5929 11.309 30.2978 11.309C30.9372 11.309 31.4344 11.2727 31.8251 11.0909C32.0383 11.0545 32.3579 10.8363 32.8552 10.4727C33.1393 10.1818 33.388 10.0363 33.4945 10.0363C33.7787 10.0363 33.9563 10.1818 33.9563 10.4727C33.9563 10.7636 33.7432 11.1272 33.3169 11.4909C32.6421 12.0363 31.5765 12.3636 30.2623 12.3636C27.8825 12.3636 26.7104 11.4181 26.7104 9.41814V6.54541C26.7104 5.89086 26.959 5.27268 27.4563 4.83632C28.0956 4.18177 29.0902 3.89086 30.3689 3.89086C32.6776 3.89086 33.8142 5.09087 33.8142 7.49087C33.8142 8.10905 33.5656 8.36359 33.1749 8.36359L27.7404 8.29086ZM27.7404 7.23632H32.8197C32.8197 5.67268 31.9672 4.87268 30.2623 4.87268C29.623 4.87268 29.0902 5.01814 28.5219 5.34541C27.9891 5.74541 27.7404 6.14541 27.7404 6.6545V7.23632ZM35.6967 9.01814V4.47268C35.6967 2.03632 36.9399 0.872679 39.3907 0.872679C40.3853 0.872679 41.1667 1.12723 41.806 1.52723C42.4809 2.07268 42.8361 2.83632 42.8361 3.81814C42.8361 4.29086 42.694 4.47268 42.3033 4.47268C42.0546 4.47268 41.8415 4.2545 41.7705 3.81814C41.735 3.4545 41.5574 3.12723 41.3798 2.79996C41.0956 2.18177 40.3852 1.92723 39.3197 1.92723C38.4317 1.92723 37.7568 2.18177 37.3306 2.61814C36.9044 3.0545 36.7978 3.74541 36.7978 4.69086V8.47268C36.7978 9.49086 37.0109 10.1818 37.4016 10.5818C37.8634 11.0545 38.5027 11.3454 39.3907 11.3454C40.776 11.3454 41.5574 10.8363 41.7705 9.89087C41.8771 9.49087 41.8771 9.34541 41.8771 9.27268C41.9836 9.0545 42.1257 8.98177 42.3388 8.98177C42.694 8.98177 42.8716 9.23632 42.8716 9.63632C42.8716 10.5454 42.4809 11.2363 41.7705 11.8181C41.1667 12.2181 40.4208 12.4363 39.4618 12.4363C38.3251 12.4363 37.4372 12.1818 36.7978 11.6363C36.0519 11.0181 35.6967 10.109 35.6967 9.01814ZM44.4699 9.67268V6.6545C44.4699 4.79996 45.6421 3.89086 48.0219 3.89086C50.4016 3.89086 51.5738 4.79996 51.5738 6.6545V9.67268C51.5738 11.5272 50.4016 12.4363 48.0574 12.4363C45.6776 12.4 44.4699 11.4909 44.4699 9.67268ZM50.5437 9.67268V6.6545C50.5437 5.49086 49.6913 4.94541 47.9863 4.94541C46.3525 4.94541 45.4645 5.56359 45.4645 6.6545V9.67268C45.4645 10.8363 46.3169 11.3818 48.0219 11.3818C49.7623 11.3454 50.5437 10.7636 50.5437 9.67268ZM59.388 11.3818C58.8907 11.7818 58.5 12 58.1093 12.1454C57.7186 12.2909 57.2213 12.4 56.6885 12.4C55.765 12.4 54.9481 12.1818 54.3798 11.7818C53.7049 11.309 53.3497 10.6181 53.3497 9.67268V6.54541C53.3497 5.63632 53.7049 4.94541 54.3443 4.47268C54.8771 4.07268 55.694 3.8545 56.582 3.8545C57.1858 3.8545 57.6831 3.89086 58.0738 4.07268C58.4645 4.21814 58.9262 4.47268 59.3525 4.87268V1.09086C59.3525 0.581774 59.4945 0.327226 59.8497 0.327226C60.2049 0.327226 60.3825 0.581774 60.3825 1.09086V11.8545C60.3825 12.2545 60.2404 12.4 59.8853 12.4C59.6721 12.4 59.5301 12.2909 59.4945 12.0363C59.4235 11.8909 59.388 11.6727 59.388 11.3818ZM59.3169 10.1818V5.92723C58.8197 5.52723 58.429 5.27268 58.0738 5.16359C57.612 5.01814 57.1858 4.90905 56.6885 4.90905C56.0492 4.90905 55.5164 5.01814 55.1257 5.30905C54.6284 5.59996 54.3443 6.10905 54.3443 6.69086V9.63632C54.3443 10.2545 54.5929 10.6909 55.1257 11.0545C55.5874 11.309 56.0492 11.4545 56.7596 11.4545C57.2924 11.4545 57.7896 11.3454 58.1803 11.2C58.5355 10.8727 58.9262 10.5818 59.3169 10.1818ZM63.2596 8.29086V9.4545C63.2596 10.7272 64.112 11.309 65.8169 11.309C66.4563 11.309 66.9536 11.2727 67.3443 11.0909C67.5574 11.0545 67.8771 10.8363 68.3743 10.4727C68.6585 10.1818 68.9071 10.0363 69.0137 10.0363C69.2978 10.0363 69.4754 10.1818 69.4754 10.4727C69.4754 10.7636 69.2623 11.1272 68.8361 11.4909C68.1612 12.0363 67.0956 12.3636 65.7814 12.3636C63.4016 12.3636 62.2295 11.4181 62.2295 9.41814V6.54541C62.2295 5.89086 62.4781 5.27268 62.9754 4.83632C63.6148 4.18177 64.6093 3.89086 65.888 3.89086C68.1967 3.89086 69.3333 5.09087 69.3333 7.49087C69.3333 8.10905 69.0847 8.36359 68.694 8.36359L63.2596 8.29086ZM63.2596 7.23632H68.3388C68.3388 5.67268 67.4863 4.87268 65.7814 4.87268C65.1421 4.87268 64.6093 5.01814 64.041 5.34541C63.5082 5.74541 63.2596 6.14541 63.2596 6.6545V7.23632ZM71.2159 9.01814V4.47268C71.2159 2.03632 72.459 0.872679 74.9098 0.872679C75.9044 0.872679 76.6858 1.12723 77.3251 1.52723C78 2.07268 78.3552 2.83632 78.3552 3.81814C78.3552 4.29086 78.2131 4.47268 77.8224 4.47268C77.5738 4.47268 77.3607 4.2545 77.2896 3.81814C77.2541 3.4545 77.0765 3.12723 76.8989 2.79996C76.6148 2.18177 75.9044 1.92723 74.8388 1.92723C73.9508 1.92723 73.276 2.18177 72.8497 2.61814C72.459 3.09086 72.3169 3.74541 72.3169 4.69086V8.47268C72.3169 9.49086 72.5301 10.1818 72.9208 10.5818C73.347 11.0545 74.0219 11.3454 74.9098 11.3454C76.2951 11.3454 77.0765 10.8363 77.2896 9.89087C77.3962 9.49087 77.3962 9.34541 77.3962 9.27268C77.5027 9.0545 77.6448 8.98177 77.8224 8.98177C78.1776 8.98177 78.3552 9.23632 78.3552 9.63632C78.3552 10.5454 77.9645 11.2363 77.2541 11.8181C76.6503 12.2181 75.9044 12.4363 74.9454 12.4363C73.8087 12.4363 72.9208 12.1818 72.2814 11.6363C71.571 11.0181 71.2159 10.109 71.2159 9.01814ZM85.7077 11.3818C85.2104 11.7818 84.8197 12.0363 84.5355 12.1454C84.1448 12.2909 83.6831 12.4 83.1503 12.4C82.2978 12.4 81.5874 12.2545 81.0191 11.8545C80.3798 11.3818 80.0956 10.8 80.0956 9.92723C80.0956 9.0545 80.4508 8.39996 81.0902 7.89087C81.623 7.4545 82.3689 7.23632 83.2568 7.23632C83.9317 7.23632 84.7486 7.38177 85.6721 7.74541V6.43632C85.6721 5.81814 85.388 5.38177 84.8197 5.12723C84.429 4.98177 83.9317 4.87268 83.3989 4.87268C82.0492 4.87268 81.3743 5.27268 81.2322 6.03632C81.1967 6.39996 81.1257 6.58177 81.1257 6.58177C81.0191 6.72723 80.8771 6.83632 80.6639 6.83632C80.2732 6.83632 80.1311 6.61814 80.1311 6.21814C80.1311 5.67268 80.3443 5.16359 80.7705 4.69086C81.2678 4.07268 82.1913 3.81814 83.541 3.81814C84.571 3.81814 85.3525 3.96359 85.8497 4.36359C86.4536 4.83632 86.7377 5.52723 86.7377 6.58177V10.3272C86.7377 10.7636 86.8443 11.0909 86.9863 11.2C86.9863 11.2 87.1995 11.309 87.4836 11.4545C87.6257 11.5636 87.7322 11.709 87.7322 11.9636C87.7322 12.2545 87.5902 12.4363 87.2705 12.4363C87.1639 12.4363 87.0219 12.4363 86.8087 12.3272C86.418 12.1818 86.1694 12.0727 86.1339 12.0727C85.8852 11.8909 85.7787 11.6727 85.7077 11.3818ZM85.6721 10.2909V8.72723C84.8907 8.47268 84.1093 8.32723 83.4344 8.32723C81.9071 8.32723 81.1612 8.83632 81.1612 9.8545C81.1612 10.4 81.4098 10.8 81.8361 11.0181C82.2268 11.2363 82.6885 11.309 83.2213 11.309C83.7186 11.309 84.1448 11.2 84.5355 11.0181C84.8197 10.9454 85.1749 10.6909 85.6721 10.2909ZM89.6503 4.72723C89.8989 4.43632 90.1475 4.18177 90.2896 4.07268C90.5383 3.92723 90.7869 3.81814 91.1776 3.81814C91.7104 3.81814 92.2076 4.10905 92.6694 4.72723C92.9536 4.36359 93.2022 4.10905 93.4508 4.03632C93.6995 3.89086 94.0546 3.81814 94.4454 3.81814C95.6885 3.81814 96.2568 4.43632 96.2568 5.67268V11.6363C96.2568 12.1454 96.1148 12.4 95.724 12.4C95.3689 12.4 95.2268 12.1454 95.2268 11.6363V6.03632C95.2268 5.27268 94.9426 4.87268 94.3388 4.87268C93.8771 4.87268 93.4508 5.16359 93.0601 5.74541V11.6363C93.0601 12.1454 92.918 12.4 92.5628 12.4C92.2077 12.4 92.0656 12.1454 92.0656 11.6363V6.18177C92.0656 5.30905 91.7104 4.90905 91.071 4.90905C90.6093 4.90905 90.2186 5.19996 89.8279 5.78177V11.709C89.8279 12.2181 89.6858 12.4727 89.2951 12.4727C88.9399 12.4727 88.7978 12.2181 88.7978 11.709V4.43632C88.7978 4.07268 88.9399 3.89086 89.2596 3.89086C89.4016 3.89086 89.5437 3.99996 89.6503 4.18177C89.6148 4.32723 89.6503 4.58177 89.6503 4.72723ZM98.8852 4.72723C99.6667 4.10905 100.626 3.8545 101.656 3.8545C103.822 3.8545 104.852 4.79996 104.852 6.61814V9.63632C104.852 10.509 104.568 11.2 103.964 11.709C103.432 12.1818 102.686 12.3636 101.727 12.3636C100.626 12.3636 99.7022 12.0727 98.8497 11.4545V14.9454C98.8497 15.4909 98.7076 15.7454 98.3525 15.7454C97.9973 15.7454 97.8552 15.4909 97.8552 14.9454V4.6545C97.8552 4.10905 97.9973 3.8545 98.2814 3.8545C98.4235 3.8545 98.5656 3.96359 98.6721 4.14541C98.7432 4.36359 98.7787 4.58177 98.8852 4.72723ZM98.8852 10.3272C99.6311 10.9818 100.519 11.3454 101.549 11.3454C102.189 11.3454 102.721 11.2363 103.112 10.9454C103.609 10.6545 103.787 10.1818 103.787 9.63632V6.61814C103.787 5.96359 103.538 5.56359 103.005 5.23632C102.615 5.01814 102.082 4.94541 101.443 4.94541C100.839 4.94541 100.342 5.0545 100.022 5.19996C99.6667 5.34541 99.347 5.67268 98.8497 6.14541V10.3272H98.8852ZM108.369 7.38177C108.369 5.0545 109.15 2.98177 110.678 1.23632C111.21 0.58177 111.708 0.21814 112.027 0.21814C112.134 0.21814 112.276 0.218135 112.311 0.327226C112.418 0.436316 112.454 0.472683 112.454 0.618138C112.454 0.763592 112.24 1.0545 111.85 1.49087C110.216 3.09087 109.434 5.09086 109.434 7.4545C109.434 10.0727 110.287 12.2545 111.956 13.8545C112.311 14.1454 112.454 14.4727 112.454 14.6545C112.454 14.7636 112.418 14.909 112.311 14.9454C112.205 15.0545 112.098 15.0909 112.027 15.0909C111.637 15.0909 111.104 14.6181 110.393 13.6727C109.008 12 108.369 9.92723 108.369 7.38177ZM129.822 7.99996C129.822 10.3272 129.041 12.4 127.514 14.1454C126.981 14.8 126.484 15.1636 126.164 15.1636C126.057 15.1636 125.915 15.1636 125.88 15.0545C125.773 14.9454 125.738 14.8363 125.738 14.7636C125.738 14.6181 125.951 14.2909 126.342 13.9636C127.975 12.3636 128.757 10.3636 128.757 7.99996C128.757 5.38177 127.904 3.19995 126.235 1.59995C125.88 1.30904 125.738 0.981774 125.738 0.799956C125.738 0.690865 125.773 0.545407 125.88 0.509043C125.986 0.399952 126.093 0.363592 126.164 0.363592C126.555 0.363592 127.087 0.836316 127.798 1.78177C129.148 3.41813 129.822 5.52723 129.822 7.99996ZM123.962 14.6545H114.158C113.874 14.6545 113.555 14.4 113.555 14.0363C113.555 13.6727 113.803 13.4181 114.158 13.4181H123.962C124.246 13.4181 124.566 13.6727 124.566 14.0363C124.53 14.4 124.352 14.6545 123.962 14.6545ZM117 1.49087C117 1.49087 117.852 2.10905 117.852 3.09086C117.852 4.90905 115.437 6.94541 115.437 8.83632C115.437 10.909 116.964 12.2181 118.385 12.6181C118.598 12.6545 118.669 12.4 118.421 12.3636C117.817 12.2181 117.142 11.4181 117.142 10.1454C117.142 8.98177 118.243 8.54541 118.669 7.96359C119.131 7.34541 119.025 6.6545 118.776 6.43632C118.527 6.21814 118.669 5.92723 119.167 6.29086C119.628 6.6545 120.055 7.23632 119.913 7.8545C119.699 8.61814 119.948 9.0545 120.374 9.12723C120.765 9.16359 121.227 8.98177 121.156 8.61814C121.12 8.2545 120.907 7.8545 121.014 7.8545C121.298 7.8545 121.902 8.54541 121.902 9.67268C121.902 10.8 121.014 11.6 120.73 11.8909C120.587 12.0363 120.765 12.2909 121.014 12.1818C121.12 12.1454 121.369 11.9636 121.511 11.8909C122.186 11.3818 123.322 10.3272 123.322 8.36359C123.322 6.29086 122.576 5.38177 121.795 4.61814C121.049 3.8545 120.872 4.07268 121.049 4.39996C121.689 5.56359 121.298 5.92723 120.836 5.92723C120.303 5.92723 120.232 4.61814 120.055 3.63632C119.557 1.41814 117.639 1.0545 117.284 1.0545C116.893 1.09086 116.538 1.27269 117 1.49087Z" fill="#006400"/>
</g>
<defs>
<clipPath id="clip0_101_754">
<rect width="130" height="16" fill="white"/>
</clipPath>
</defs>
</svg>
