<svg width="138" height="17" viewBox="0 0 138 17" fill="none" xmlns="http://www.w3.org/2000/svg">
<g clip-path="url(#clip0_101_813)">
<path d="M116.105 1.10852C116.105 1.10852 116.746 1.10852 117.013 1.30797C117.013 1.30797 117.282 1.50741 117.489 2.11671L121.969 15.4197C121.969 15.4197 122.031 15.5876 121.98 15.7251C121.98 15.7251 121.928 15.8613 121.7 15.8613H119.801C119.801 15.8613 119.574 15.8613 119.44 15.809C119.44 15.809 119.305 15.7567 119.223 15.5257L118.315 12.6469H113.07L112.161 15.5036C112.161 15.5036 112.099 15.6935 111.986 15.7773C111.986 15.7773 111.872 15.8613 111.625 15.8613H109.725C109.725 15.8613 109.498 15.8613 109.436 15.7251C109.436 15.7251 109.375 15.5876 109.436 15.4197L113.895 2.11671C113.895 2.11671 113.999 1.80175 114.102 1.61332C114.102 1.61332 114.206 1.4235 114.36 1.31898C114.36 1.31898 114.516 1.21307 114.722 1.1608C114.722 1.1608 114.928 1.10852 115.217 1.10852H116.105ZM115.713 3.94601H115.61L114.763 6.86466L113.69 10.4545H117.654L116.581 6.92653L115.713 3.94601Z" fill="black"/>
<path d="M73.4676 1.14844C73.4676 1.14844 73.7568 1.14844 73.8595 1.22272C73.8595 1.22272 73.9623 1.29561 73.9623 1.58995L73.9622 7.03932H80.3843V1.58995C80.3843 1.58995 80.3843 1.31622 80.4992 1.23234C80.4992 1.23234 80.6127 1.14844 80.8601 1.14844H82.4331C82.4331 1.14844 82.7223 1.14844 82.8156 1.22272C82.8156 1.22272 82.9089 1.29561 82.9089 1.58995V15.4197C82.9089 15.4197 82.9089 15.7141 82.8156 15.7883C82.8156 15.7883 82.7223 15.8612 82.4331 15.8612H80.86C80.8601 15.8612 80.6127 15.8612 80.4992 15.7773C80.4992 15.7773 80.3843 15.6934 80.3843 15.4197V9.24412H73.9622V15.4197C73.9623 15.4197 73.9623 15.7141 73.8595 15.7883C73.8595 15.7883 73.7568 15.8612 73.4676 15.8612H71.8999C71.9 15.8612 71.6729 15.8612 71.5499 15.7773C71.5499 15.7773 71.4256 15.6934 71.4256 15.4197L71.4256 1.58995C71.4256 1.58995 71.4256 1.31622 71.5499 1.23234C71.5499 1.23234 71.6729 1.14844 71.9 1.14844H73.4676Z" fill="black"/>
<path d="M67.1754 1.14844C67.1754 1.14844 67.4025 1.14844 67.4755 1.23234C67.4755 1.23234 67.5471 1.31761 67.5471 1.54869V3.00248C67.5471 3.00248 67.5471 3.21294 67.4755 3.29682C67.4755 3.29682 67.4025 3.38073 67.1754 3.38073H63.2536V15.4197C63.2536 15.4197 63.2536 15.7141 63.1603 15.7883C63.1603 15.7883 63.0671 15.8612 62.7779 15.8612H61.1643C61.1643 15.8612 60.917 15.8612 60.8034 15.7773C60.8034 15.7773 60.6899 15.6934 60.6899 15.4197V3.38073H56.8491C56.8491 3.38073 56.6221 3.38073 56.5599 3.29682C56.5599 3.29682 56.4978 3.21294 56.4978 3.00248L56.4977 1.54869C56.4978 1.54869 56.4978 1.31761 56.5599 1.23234C56.5599 1.23234 56.6221 1.14844 56.8491 1.14844H67.1754Z" fill="black"/>
<path d="M41.0215 1.06103C45.0538 1.06103 48.3199 4.38511 48.3199 8.48889C48.3199 12.5899 45.0538 15.9168 41.0216 15.9168H24.9336C24.3583 15.9168 23.8921 15.4423 23.8921 14.8568C23.8921 14.2714 24.3583 13.7969 24.9336 13.7969H28.6823C29.2548 13.7969 29.721 13.3224 29.721 12.737C29.721 12.1515 29.2548 11.677 28.6823 11.677H27.848C27.2727 11.677 26.8065 11.2025 26.8065 10.6171C26.8065 10.0316 27.2727 9.55715 27.848 9.55715H30.3481C30.9265 9.55551 31.3751 9.07574 31.3895 8.49721C31.3895 7.91175 30.9233 7.43728 30.348 7.43728H21.5993C21.024 7.43728 20.5578 6.96281 20.5578 6.37735C20.5578 5.79188 21.024 5.31741 21.5993 5.31741H28.0553C28.6337 5.31577 29.0823 4.836 29.0967 4.25748C29.0967 3.67202 28.6305 3.19754 28.0552 3.19754H26.5993C26.0241 3.19754 25.5579 2.72307 25.5579 2.13761C25.5579 1.55215 26.0241 1.04993 26.5993 1.04993L41.0215 1.06103ZM39.8547 3.53606C37.6137 3.53606 35.8007 5.384 35.8007 7.66203V9.31298C35.8007 11.5938 37.6137 13.4389 39.8547 13.4389C42.093 13.4389 43.9087 11.5938 43.9087 9.31298V7.66203C43.9087 5.384 42.093 3.53606 39.8547 3.53606ZM41.2397 7.43728C41.7795 7.43728 42.2184 7.88401 42.2184 8.4334V8.56103C42.2184 9.11042 41.7795 9.55715 41.2397 9.55715H38.1971C37.6573 9.55715 37.2184 9.11042 37.2184 8.56103V8.4334C37.2184 7.88401 37.6573 7.43728 38.1971 7.43728H41.2397Z" fill="black"/>
<path d="M21.662 13.7969C22.2045 13.7969 22.6407 14.2408 22.6407 14.793V14.9206C22.6407 15.47 22.2045 15.9167 21.662 15.9167H18.0605C17.5207 15.9167 17.0818 15.47 17.0818 14.9206V14.793C17.0818 14.2408 17.5207 13.7969 18.0605 13.7969H21.662Z" fill="black"/>
<path d="M97.5055 1.13464C97.5055 1.13464 97.7731 1.13464 97.8461 1.25157C97.8461 1.25157 97.9177 1.36711 97.9177 1.6188V2.94469C97.9177 2.94469 97.9177 3.21841 97.8461 3.31331C97.8461 3.31331 97.7731 3.4082 97.5055 3.4082H92.0133C92.0133 3.4082 91.2281 3.4082 90.9078 3.76444C90.9078 3.76444 90.5889 4.12205 90.5889 4.79324V6.99804H96.8231C96.8231 6.99804 97.092 6.99804 97.165 7.10395C97.165 7.10395 97.2366 7.20848 97.2366 7.50146V8.65542C97.2366 8.65542 97.2366 8.90712 97.165 9.0213C97.165 9.0213 97.092 9.13681 96.8231 9.13681H90.5889V12.2081C90.5889 12.2081 90.5889 12.8807 90.9295 13.2273C90.9295 13.2273 91.27 13.5753 92.0133 13.5753H97.6285C97.6285 13.5753 97.9177 13.5753 97.9907 13.6798C97.9907 13.6798 98.0623 13.7843 98.0623 14.0787V15.3785C98.0623 15.3785 98.0623 15.6095 97.9799 15.7347C97.9799 15.7347 97.8975 15.8612 97.6285 15.8612H91.7443C91.7444 15.8612 90.6497 15.8612 89.9469 15.5463C89.9469 15.5463 89.2442 15.2313 88.8199 14.7059C88.8199 14.7059 88.3955 14.1805 88.2306 13.5079C88.2306 13.5079 88.0644 12.8367 88.0644 12.1008V4.91705C88.0644 4.91705 88.0644 4.1812 88.2604 3.49899C88.2604 3.49899 88.4577 2.81541 88.9023 2.29C88.9023 2.29 89.3469 1.76597 90.0497 1.44963C90.0497 1.44963 90.7538 1.13464 91.7444 1.13464H97.5055Z" fill="black"/>
<path d="M104.769 1.14844C104.769 1.14844 105.057 1.14844 105.161 1.22272C105.161 1.22272 105.264 1.29561 105.264 1.58995V15.4197C105.264 15.4197 105.264 15.7141 105.161 15.7883C105.161 15.7883 105.057 15.8612 104.769 15.8612H103.201C103.201 15.8612 102.954 15.8612 102.841 15.7773C102.841 15.7773 102.727 15.6934 102.727 15.4197V1.58995C102.727 1.58995 102.727 1.31622 102.841 1.23234C102.841 1.23234 102.954 1.14844 103.201 1.14844H104.769Z" fill="black"/>
<path d="M23.3305 1.07764C23.8703 1.07764 24.3065 1.52436 24.3065 2.07375V2.20416C24.3065 2.75355 23.8703 3.1975 23.3305 3.1975H19.3092C18.7694 3.1975 18.3304 2.75355 18.3304 2.20416V2.07375C18.3304 1.52436 18.7694 1.07764 19.3092 1.07764H23.3305Z" fill="black"/>
<path d="M24.5792 9.55713C25.119 9.55713 25.5579 10.0039 25.5579 10.5532V10.6809C25.5579 11.2303 25.119 11.677 24.5792 11.677H22.3708C21.831 11.677 21.3921 11.2303 21.3921 10.6809V10.5532C21.3921 10.0039 21.831 9.55713 22.3708 9.55713H24.5792Z" fill="black"/>
</g>
<defs>
<clipPath id="clip0_101_813">
<rect width="105" height="15" fill="white" transform="translate(17 1)"/>
</clipPath>
</defs>
</svg>
