<svg width="28" height="28" viewBox="0 0 28 28" fill="none" xmlns="http://www.w3.org/2000/svg">
<g clip-path="url(#clip0_101_858)">
<path d="M0.879415 0.291748H0.869045C0.743453 0.292402 0.619468 0.323563 0.50557 0.383102C0.391671 0.44264 0.290547 0.529151 0.209112 0.636717C0.127678 0.744283 0.0678542 0.870366 0.0337335 1.00634C-0.000387251 1.14232 -0.0080003 1.28499 0.011415 1.42458L3.69705 26.6001C3.79142 27.2336 4.2809 27.7026 4.8523 27.7084H22.5369C22.7448 27.7107 22.9465 27.6293 23.1057 27.4789C23.2649 27.3285 23.371 27.119 23.4049 26.8882L27.0905 1.42925C27.1099 1.28975 27.1023 1.14719 27.0683 1.01129C27.0342 0.875394 26.9745 0.74937 26.8932 0.641823C26.8118 0.534277 26.7109 0.447743 26.5971 0.388132C26.4833 0.32852 26.3594 0.297236 26.2339 0.296415H26.2225L0.879415 0.291748ZM16.4018 18.4859H10.7572L9.2286 9.50375H17.7696L16.4007 18.4871L16.4018 18.4859Z" fill="white"/>
</g>
<defs>
<clipPath id="clip0_101_858">
<rect width="28" height="28" fill="white"/>
</clipPath>
</defs>
</svg>
