<svg width="28" height="28" viewBox="0 0 28 28" fill="none" xmlns="http://www.w3.org/2000/svg">
<g clip-path="url(#clip0_101_863)">
<path fill-rule="evenodd" clip-rule="evenodd" d="M14.0676 0.466553C10.7157 0.467567 7.47753 1.64117 4.95117 3.77055C2.39585 5.9256 0.707205 8.88169 0.18152 12.1202C-0.354352 15.3701 0.300638 18.699 2.03338 21.5319C3.74434 24.3368 6.43685 26.4576 9.62428 27.5108C10.332 27.6387 10.5821 27.2038 10.5821 26.8379V24.4784C6.65724 25.3212 5.82883 22.6127 5.82883 22.6127C5.57207 21.7779 5.01931 21.0572 4.26759 20.5771C2.9989 19.725 4.3709 19.725 4.3709 19.725C4.81504 19.7875 5.23986 19.949 5.61159 20.1963C5.98428 20.4436 6.29421 20.7722 6.51918 21.1567C6.70938 21.4983 6.96718 21.7988 7.27614 22.0424C7.73716 22.4093 8.30274 22.6318 8.89772 22.6805C9.49271 22.7292 10.0889 22.6017 10.6072 22.315C10.6622 21.614 10.9683 20.9551 11.4703 20.4576C8.34787 20.1086 5.06897 18.9158 5.06897 13.6443C5.04557 12.2718 5.5606 10.9416 6.51049 9.92122C6.0892 8.72266 6.13834 7.41623 6.64855 6.25042C6.64855 6.25042 7.83035 5.87522 10.5126 7.67282C12.8146 7.04822 15.2501 7.04822 17.5521 7.67282C20.2353 5.87522 21.4084 6.25042 21.4084 6.25042C21.9259 7.40122 21.9877 8.70228 21.5812 9.89602C22.5306 10.9163 23.0452 12.2461 23.0218 13.6182C23.0218 18.9503 19.7352 20.117 16.603 20.4315C16.939 20.7656 17.1988 21.166 17.3639 21.6075C17.528 22.048 17.5956 22.5184 17.5608 22.9879V26.795C17.5608 27.2467 17.8119 27.5958 18.5263 27.4595C21.6777 26.3789 24.33 24.2522 26.011 21.4582C27.7132 18.6367 28.3512 15.3321 27.8166 12.1071C27.292 8.89315 25.6219 5.9575 23.0952 3.80789C20.5973 1.68451 17.3937 0.498788 14.0676 0.466553Z" fill="#F9F9F9"/>
</g>
<defs>
<clipPath id="clip0_101_863">
<rect width="28" height="28" fill="white"/>
</clipPath>
</defs>
</svg>
