<svg width="27" height="27" viewBox="0 0 27 27" fill="none" xmlns="http://www.w3.org/2000/svg">
<path d="M4.26482 12.1322C4.22238 12.1322 4.21177 12.1082 4.23299 12.0722L4.45578 11.7482C4.477 11.7122 4.53004 11.6882 4.57248 11.6882H8.3599C8.40234 11.6882 8.41295 11.7242 8.39173 11.7602L8.21138 12.0722C8.19016 12.1082 8.13711 12.1442 8.10529 12.1442L4.26482 12.1322Z" fill="#00ACD7"/>
<path d="M2.66286 13.236C2.62042 13.236 2.60981 13.212 2.63103 13.176L2.85382 12.852C2.87504 12.816 2.92808 12.792 2.97052 12.792H7.80824C7.85068 12.792 7.8719 12.828 7.86129 12.864L7.77642 13.152C7.76581 13.2 7.72337 13.224 7.68093 13.224L2.66286 13.236Z" fill="#00ACD7"/>
<path d="M5.23024 14.34C5.18781 14.34 5.1772 14.304 5.19841 14.268L5.34694 13.968C5.36816 13.932 5.4106 13.896 5.45303 13.896H7.57484C7.61728 13.896 7.63849 13.932 7.63849 13.98L7.61728 14.268C7.61728 14.316 7.57484 14.352 7.54301 14.352L5.23024 14.34Z" fill="#00ACD7"/>
<path d="M16.2424 11.9161C15.5741 12.1081 15.1179 12.2521 14.4601 12.4441C14.301 12.4921 14.2904 12.5041 14.1524 12.3241C13.9933 12.1201 13.8766 11.9881 13.6538 11.8681C12.9855 11.4961 12.3383 11.6041 11.7336 12.0481C11.0122 12.5761 10.6409 13.3561 10.6515 14.3281C10.6621 15.2881 11.2456 16.0801 12.0837 16.2121C12.8051 16.3201 13.4098 16.0321 13.8872 15.4201C13.9827 15.2881 14.0676 15.1441 14.1737 14.9761C13.7917 14.9761 13.3143 14.9761 12.1261 14.9761C11.9033 14.9761 11.8503 14.8201 11.9245 14.6161C12.0625 14.2441 12.3171 13.6201 12.4656 13.3081C12.4974 13.2361 12.5717 13.1161 12.7308 13.1161C13.2719 13.1161 15.2664 13.1161 16.5925 13.1161C16.5713 13.4401 16.5713 13.7641 16.5289 14.0881C16.4122 14.9521 16.1257 15.7441 15.6589 16.4401C14.8951 17.5801 13.8978 18.2881 12.6354 18.4801C11.5957 18.6361 10.6302 18.4081 9.78152 17.6881C8.99645 17.0161 8.55087 16.1281 8.43417 15.0241C8.29626 13.7161 8.63575 12.5401 9.33594 11.5081C10.0892 10.3921 11.0864 9.68411 12.3065 9.43211C13.3037 9.22811 14.2585 9.36011 15.1179 10.0201C15.6801 10.4401 16.0833 11.0161 16.3485 11.7121C16.4122 11.8201 16.3697 11.8801 16.2424 11.9161Z" fill="#00ACD7"/>
<path d="M19.754 18.5521C18.7886 18.5281 17.9081 18.2161 17.1654 17.4961C16.5395 16.8841 16.147 16.1041 16.0196 15.1801C15.8287 13.8241 16.1576 12.6241 16.879 11.5561C17.6534 10.4041 18.587 9.80408 19.8495 9.55208C20.9316 9.33608 21.9501 9.45608 22.8731 10.1641C23.7112 10.8121 24.231 11.6881 24.369 12.8401C24.5493 14.4601 24.1356 15.7801 23.1489 16.9081C22.4487 17.7121 21.5894 18.2161 20.6027 18.4441C20.3163 18.5041 20.0299 18.5161 19.754 18.5521ZM22.279 13.7041C22.2684 13.5481 22.2684 13.4281 22.2472 13.3081C22.0562 12.1201 21.0908 11.4481 20.0829 11.7121C19.0963 11.9641 18.4597 12.6721 18.2263 13.8001C18.0354 14.7361 18.4385 15.6841 19.2024 16.0681C19.7859 16.3561 20.3694 16.3201 20.9316 15.9961C21.7697 15.5041 22.2259 14.7361 22.279 13.7041Z" fill="#00ACD7"/>
</svg>
